<?xml version="1.0" encoding="UTF-8"?>
<svg version="1.1" xmlns="http://www.w3.org/2000/svg" width="500" height="500">
<path d="M0 0 C3.79986612 3.79986612 4.75413229 6.75964202 7 12 C7.33 6.72 7.66 1.44 8 -4 C14.6 -4 21.2 -4 28 -4 C29.46098845 -1.0780231 29.11134901 1.49893475 29.09765625 4.7578125 C29.0962413 5.42086395 29.09482635 6.08391541 29.09336853 6.76705933 C29.08776754 8.88641863 29.075215 11.00567259 29.0625 13.125 C29.05748512 14.56119639 29.05292219 15.99739444 29.04882812 17.43359375 C29.03779782 20.95576345 29.02053259 24.47787145 29 28 C29.20681396 27.10168457 29.41362793 26.20336914 29.62670898 25.27783203 C30.39437531 21.94890663 31.16430763 18.62052243 31.93579102 15.29248047 C32.26938601 13.85128518 32.60207325 12.40987946 32.93383789 10.96826172 C33.41054267 8.89755307 33.89049433 6.82762021 34.37109375 4.7578125 C34.65911865 3.5114502 34.94714355 2.26508789 35.24389648 0.98095703 C36 -2 36 -2 37 -4 C43.6 -4 50.2 -4 57 -4 C58.3609623 -1.2780754 57.70366248 0.1831957 57.0625 3.125 C56.77052734 4.49011719 56.77052734 4.49011719 56.47265625 5.8828125 C56.23869141 6.93082031 56.23869141 6.93082031 56 8 C56.53625 7.113125 57.0725 6.22625 57.625 5.3125 C61.13462694 0.12168812 65.30043306 -3.52422272 71.59765625 -4.78125 C79.79015747 -5.52723385 88.20585023 -4.99470911 95 0 C102.35755709 7.35755709 103 16.10036461 103 26 C96.07 26 89.14 26 82 26 C81.67 22.37 81.34 18.74 81 15 C78.03 15.495 78.03 15.495 75 16 C74.48882139 21.36737537 75.6692577 23.81522122 79 28 C82.44791528 31.77088456 86.15575515 35.15075481 90.0625 38.4375 C98.42315754 45.69636546 103.20450145 53.98443347 103.9921875 65.09765625 C104.01968753 75.31391782 102.96008904 85.09723525 96 93 C90.88089859 97.86505171 83.9890076 97.53446988 77.30517578 97.48242188 C70.59709205 97.22766577 64.86330397 95.86330397 60 91 C60 92.65 60 94.3 60 96 C52.74 96 45.48 96 38 96 C35.36 84.12 32.72 72.24 30 60 C29.67 71.88 29.34 83.76 29 96 C22.07 96 15.14 96 8 96 C7.67 91.71 7.34 87.42 7 83 C6.175 84.5675 5.35 86.135 4.5 87.75 C2.02352982 91.76928263 0.09772397 94.64788217 -4.3359375 96.4453125 C-12.9405004 98.23687838 -23.35508963 98.55710696 -31.26171875 94.2890625 C-34.08708705 92.19384556 -35.97653564 89.87201393 -38 87 C-38 89.97 -38 92.94 -38 96 C-44.6 96 -51.2 96 -58 96 C-58.33 90.72 -58.66 85.44 -59 80 C-62.63 80 -66.26 80 -70 80 C-70.33 85.28 -70.66 90.56 -71 96 C-77.6 96 -84.2 96 -91 96 C-91 89.65149949 -90.91104529 83.62480096 -90.28149414 77.35668945 C-90.20507187 76.55692688 -90.1286496 75.75716431 -90.0499115 74.9331665 C-89.79960084 72.32606909 -89.54251047 69.71969198 -89.28515625 67.11328125 C-89.10781765 65.28349856 -88.93085777 63.45367914 -88.7542572 61.62382507 C-88.38473905 57.80516023 -88.01211261 53.98681681 -87.63696289 50.16870117 C-87.1573564 45.28701048 -86.68332731 40.40479944 -86.21134281 35.52236652 C-85.84643872 31.75005857 -85.47971579 27.97792937 -85.1123333 24.20586205 C-84.93702165 22.40584365 -84.76200577 20.60579643 -84.58729744 18.80571938 C-84.34250069 16.28868851 -84.09553382 13.77188013 -83.84790039 11.25512695 C-83.77668976 10.51989304 -83.70547913 9.78465912 -83.6321106 9.02714539 C-83.19985196 4.66260384 -82.64953903 0.33609154 -82 -4 C-77.17619198 -4.0246519 -72.35242033 -4.04283693 -67.52856445 -4.05493164 C-65.88630536 -4.05997174 -64.24405077 -4.06680378 -62.60180664 -4.07543945 C-60.24624521 -4.08751926 -57.89074291 -4.09323139 -55.53515625 -4.09765625 C-54.79660904 -4.10281754 -54.05806183 -4.10797882 -53.2971344 -4.11329651 C-51.53101912 -4.1134925 -49.76502854 -4.06194719 -48 -4 C-46.2392724 -2.2392724 -46.56720671 0.31426237 -46.33569336 2.71313477 C-46.21564438 3.9343251 -46.0955954 5.15551544 -45.97190857 6.41371155 C-45.84445889 7.75626746 -45.71710626 9.09883258 -45.58984375 10.44140625 C-45.45714006 11.8076499 -45.32404299 13.17385539 -45.19056702 14.5400238 C-44.83975911 18.14162578 -44.49431704 21.74372324 -44.14996338 25.34594727 C-43.79785597 29.01935514 -43.44071292 32.6922729 -43.08398438 36.36523438 C-42.38437366 43.57635256 -41.69089255 50.78804034 -41 58 C-34.4 58 -27.8 58 -21 58 C-20.5625 65.1875 -20.5625 65.1875 -20.43188477 67.42260742 C-20.20168123 71.02653375 -19.81318579 74.48075058 -19 78 C-17.02 77.34 -15.04 76.68 -13 76 C-12.88947397 74.50175822 -12.8132943 73.00097911 -12.75 71.5 C-12.70359375 70.6646875 -12.6571875 69.829375 -12.609375 68.96875 C-13.91104728 59.07604064 -21.45053077 53.2597537 -28.35742188 46.79882812 C-34.99571826 40.42452364 -40.48963552 33.78195874 -41.203125 24.30078125 C-41.3575517 14.45607908 -40.05165521 6.97404334 -33.06640625 -0.33203125 C-24.15527862 -7.52494524 -9.02134679 -6.6320297 0 0 Z M54 10 C52.99261187 13.99931555 51.99612074 18.00117928 51.00927734 22.00561523 C50.67268211 23.36506625 50.33321347 24.7238094 49.99072266 26.08178711 C49.49649253 28.04357814 49.01294846 30.00775554 48.53125 31.97265625 C48.23798828 33.15093994 47.94472656 34.32922363 47.64257812 35.54321289 C46.57020379 41.31211419 46.84495409 46.27742723 48.3125 51.93359375 C48.58320313 52.99384766 48.85390625 54.05410156 49.1328125 55.14648438 C49.41898438 56.23251953 49.70515625 57.31855469 50 58.4375 C50.28617188 59.55060547 50.57234375 60.66371094 50.8671875 61.81054688 C51.57066661 64.54239074 52.28178686 67.27199981 53 70 C53.33 70 53.66 70 54 70 C54.33 66.37 54.66 62.74 55 59 C61.27 58.67 67.54 58.34 74 58 C73.875 65.1875 73.875 65.1875 73.81982422 67.42260742 C73.78637221 71.41796412 74.23134781 74.41395325 76 78 C78.41645782 78.16687448 78.41645782 78.16687448 81 78 C83.44950621 75.55049379 83.32271254 74.75276979 83.375 71.375 C83.41753906 70.14910156 83.41753906 70.14910156 83.4609375 68.8984375 C81.89380015 59.04406537 74.58925713 53.29697257 67.64257812 46.79882812 C61.3805802 40.78585746 55.39822513 34.06699729 54.88647461 24.98535156 C54.89171143 24.2940918 54.89694824 23.60283203 54.90234375 22.890625 C54.90556641 22.13652344 54.90878906 21.38242188 54.91210938 20.60546875 C54.92048828 19.82816406 54.92886719 19.05085938 54.9375 18.25 C54.94201172 17.45722656 54.94652344 16.66445312 54.95117188 15.84765625 C54.96291435 13.89840492 54.98084854 11.94919262 55 10 C54.67 10 54.34 10 54 10 Z M-21 16 C-21.67112687 19.93088597 -21.09196306 22.36247992 -18.875 25.5625 C-15.63608526 29.60726913 -11.83106351 32.9720608 -8 36.4375 C-1.09736067 42.68274511 4.62141972 48.72353692 7 58 C7.33 58 7.66 58 8 58 C8 47.44 8 36.88 8 26 C1.07 26 -5.86 26 -13 26 C-13 23.03 -13 20.06 -13 17 C-13.33 16.34 -13.66 15.68 -14 15 C-17.80621045 14.56152641 -17.80621045 14.56152641 -21 16 Z M-65 18 C-65.76693046 20.79022464 -66.18905763 23.42465803 -66.38891602 26.30957031 C-66.44890274 27.15013977 -66.50888947 27.99070923 -66.57069397 28.85675049 C-66.63115402 29.75480408 -66.69161407 30.65285767 -66.75390625 31.578125 C-66.81907944 32.5046991 -66.88425262 33.43127319 -66.95140076 34.38592529 C-67.15844159 37.340395 -67.36053283 40.29517955 -67.5625 43.25 C-67.70214771 45.25523108 -67.84211784 47.26043973 -67.98242188 49.265625 C-68.32535409 54.1768311 -68.66384817 59.08832534 -69 64 C-66.36 64 -63.72 64 -61 64 C-60.73641977 53.99859468 -61.56403136 44.19178773 -62.5 34.25 C-62.64502659 32.66671196 -62.78956115 31.08337877 -62.93359375 29.5 C-63.2834041 25.66612362 -63.63982595 21.83291607 -64 18 C-64.33 18 -64.66 18 -65 18 Z M58 88 C59 90 59 90 59 90 Z " fill="#000000" transform="translate(191,199)"/>
<path d="M0 0 C4.89961596 4.50589682 7.76753088 8.89842345 8.15478516 15.73095703 C8.1967766 18.94810892 8.17425945 22.15797867 8.125 25.375 C8.11597656 26.49261719 8.10695313 27.61023438 8.09765625 28.76171875 C8.07418346 31.50803462 8.04134728 34.25390472 8 37 C4.68751813 37.02888146 1.37506833 37.04675799 -1.9375 37.0625 C-2.88302734 37.07087891 -3.82855469 37.07925781 -4.80273438 37.08789062 C-6.15141602 37.09272461 -6.15141602 37.09272461 -7.52734375 37.09765625 C-8.77632446 37.10551147 -8.77632446 37.10551147 -10.05053711 37.11352539 C-12 37 -12 37 -13 36 C-13.15655027 34.51361008 -13.25066943 33.02050873 -13.31640625 31.52734375 C-13.35830078 30.62822266 -13.40019531 29.72910156 -13.44335938 28.80273438 C-13.48267578 27.85720703 -13.52199219 26.91167969 -13.5625 25.9375 C-13.60568359 24.98810547 -13.64886719 24.03871094 -13.69335938 23.06054688 C-13.79979276 20.70718647 -13.90181008 18.35371646 -14 16 C-15.66611905 15.957279 -17.33382885 15.95936168 -19 16 C-20.72853755 17.72853755 -20.1275616 20.05121047 -20.12939453 22.40600586 C-20.13412277 24.13801491 -20.13412277 24.13801491 -20.13894653 25.90501404 C-20.1369223 27.16225784 -20.13489807 28.41950165 -20.1328125 29.71484375 C-20.13424759 31.63666222 -20.13424759 31.63666222 -20.13571167 33.5973053 C-20.13718848 36.31349895 -20.13503498 39.02965977 -20.13037109 41.74584961 C-20.12467947 45.23084858 -20.12794929 48.71577044 -20.13394356 52.20076656 C-20.13842309 55.51796517 -20.13528772 58.83514296 -20.1328125 62.15234375 C-20.13584885 64.03517311 -20.13584885 64.03517311 -20.13894653 65.95603943 C-20.13579437 67.11386429 -20.13264221 68.27168915 -20.12939453 69.46459961 C-20.12859894 70.48750595 -20.12780334 71.51041229 -20.12698364 72.5643158 C-20.16238864 75.00858908 -20.16238864 75.00858908 -19 77 C-17.35 76.67 -15.7 76.34 -14 76 C-13.67 68.41 -13.34 60.82 -13 53 C-6.07 53 0.86 53 8 53 C8.08125714 57.33371426 8.1406327 61.66589022 8.1875 66 C8.21263672 67.22074219 8.23777344 68.44148438 8.26367188 69.69921875 C8.32687718 77.4945401 8.30030098 83.96082567 3.16796875 90.2421875 C2.51441406 90.78101563 1.86085938 91.31984375 1.1875 91.875 C0.21876953 92.70644531 0.21876953 92.70644531 -0.76953125 93.5546875 C-7.84580636 98.14001463 -15.88302068 97.56836617 -24 97 C-29.05118435 95.9115293 -33.66771679 92.946883 -37 89 C-38.60033586 86.05201289 -39.78157701 83.13978231 -41 80 C-41.33 85.28 -41.66 90.56 -42 96 C-48.93 96 -55.86 96 -63 96 C-65.31 84.45 -67.62 72.9 -70 61 C-71.17869534 64.53608601 -71.09639691 67.30899034 -71.0625 71.0390625 C-71.05871338 71.72052338 -71.05492676 72.40198425 -71.05102539 73.10409546 C-71.03881867 75.27779479 -71.02017967 77.45136093 -71 79.625 C-70.9735104 82.49218368 -70.95347714 85.3593032 -70.9375 88.2265625 C-70.92589844 89.50096191 -70.91429687 90.77536133 -70.90234375 92.08837891 C-71 95 -71 95 -72 96 C-78.6 96 -85.2 96 -92 96 C-92.33 68.61 -92.66 41.22 -93 13 C-100.30926684 41.56495088 -105.79152547 66.67674254 -105 96 C-111.6 96 -118.2 96 -125 96 C-124.89816406 94.20433594 -124.79632813 92.40867187 -124.69140625 90.55859375 C-123.95470399 61.75335062 -131.58502826 34.6019432 -138.73876953 6.9375 C-139.03581787 5.78822021 -139.33286621 4.63894043 -139.63891602 3.45483398 C-139.9023732 2.44565414 -140.16583038 1.4364743 -140.43727112 0.39671326 C-141 -2 -141 -2 -141 -4 C-134.07 -4 -127.14 -4 -120 -4 C-119.58427734 -1.45345703 -119.58427734 -1.45345703 -119.16015625 1.14453125 C-118.79439921 3.36720863 -118.42850677 5.58986373 -118.0625 7.8125 C-117.88009766 8.93205078 -117.69769531 10.05160156 -117.50976562 11.20507812 C-117.33251953 12.27822266 -117.15527344 13.35136719 -116.97265625 14.45703125 C-116.72914429 15.9416687 -116.72914429 15.9416687 -116.48071289 17.45629883 C-116.03856807 20.10856614 -116.03856807 20.10856614 -115 23 C-114.88406494 22.2886792 -114.76812988 21.5773584 -114.64868164 20.84448242 C-114.1224992 17.62506633 -113.59254451 14.40628239 -113.0625 11.1875 C-112.88009766 10.06794922 -112.69769531 8.94839844 -112.50976562 7.79492188 C-112.33251953 6.72177734 -112.15527344 5.64863281 -111.97265625 4.54296875 C-111.81031494 3.55321045 -111.64797363 2.56345215 -111.48071289 1.54370117 C-111 -1 -111 -1 -110 -4 C-97.13 -4 -84.26 -4 -71 -4 C-69.4767549 0.56973531 -68.38408045 4.67505503 -67.4921875 9.3671875 C-67.2535498 10.61097168 -67.01491211 11.85475586 -66.76904297 13.13623047 C-66.47400879 14.70002441 -66.17897461 16.26381836 -65.875 17.875 C-64.92625 22.86625 -63.9775 27.8575 -63 33 C-62.67 20.79 -62.34 8.58 -62 -4 C-55.4 -4 -48.8 -4 -42 -4 C-41.505 4.91 -41.505 4.91 -41 14 C-40.484375 12.47375 -39.96875 10.9475 -39.4375 9.375 C-36.75594603 2.63771494 -32.51390555 -1.01883758 -26 -4 C-17.53036293 -6.32915019 -7.14830838 -5.2974071 0 0 Z M-72 51 C-72 52.65 -72 54.3 -72 56 C-71.67 56 -71.34 56 -71 56 C-71 54.35 -71 52.7 -71 51 C-71.33 51 -71.66 51 -72 51 Z " fill="#000000" transform="translate(431,199)"/>
<path d="M0 0 C1.22126839 0.00212242 1.22126839 0.00212242 2.46720886 0.00428772 C5.05500031 0.00986308 7.64270367 0.02241101 10.23046875 0.03515625 C11.99023312 0.04017444 13.74999886 0.04473679 15.50976562 0.04882812 C19.81256084 0.05897144 24.11516675 0.07855155 28.41796875 0.09765625 C28.41796875 6.69765625 28.41796875 13.29765625 28.41796875 20.09765625 C24.45796875 20.09765625 20.49796875 20.09765625 16.41796875 20.09765625 C16.41796875 46.49765625 16.41796875 72.89765625 16.41796875 100.09765625 C9.81796875 100.09765625 3.21796875 100.09765625 -3.58203125 100.09765625 C-4.37903071 90.30097372 -4.73174687 80.62988094 -4.71484375 70.80078125 C-4.71551961 69.39068587 -4.71649197 67.9805906 -4.71774292 66.57049561 C-4.71920082 63.64952458 -4.7171238 60.72858456 -4.71240234 57.80761719 C-4.70664208 54.06180042 -4.71003527 50.31605434 -4.71597481 46.57024002 C-4.71957832 43.67412781 -4.71844391 40.77803257 -4.71584702 37.88191986 C-4.71518044 36.49919374 -4.71599677 35.11646608 -4.71832657 33.73374176 C-4.72085642 31.81500782 -4.71631914 29.89626843 -4.71142578 27.97753906 C-4.71063019 26.88725403 -4.70983459 25.79696899 -4.70901489 24.67364502 C-4.58203125 22.09765625 -4.58203125 22.09765625 -3.58203125 20.09765625 C-7.54203125 20.09765625 -11.50203125 20.09765625 -15.58203125 20.09765625 C-15.6359783 17.49321277 -15.67567594 14.88988627 -15.70703125 12.28515625 C-15.72378906 11.54716797 -15.74054687 10.80917969 -15.7578125 10.04882812 C-15.79277753 6.18519199 -15.7760068 4.38861957 -13.58203125 1.09765625 C-9.19795871 -0.33261219 -4.56558885 -0.0300748 0 0 Z " fill="#000000" transform="translate(75.58203125,194.90234375)"/>
</svg>
